<?xml version="1.0" encoding="utf-8"?>
<!-- Generator: Adobe Illustrator 19.0.1, SVG Export Plug-In . SVG Version: 6.00 Build 0)  -->
<svg version="1.1" id="Layer_1" xmlns="http://www.w3.org/2000/svg" xmlns:xlink="http://www.w3.org/1999/xlink" x="0px" y="0px"
	 viewBox="-345 290.3 320 213.3" style="enable-background:new -345 290.3 320 213.3;" xml:space="preserve">
<style type="text/css">
	.st0{fill:url(#Fill-1_1_);}
</style>
<g id="stadia-logo-mark">
	
		<linearGradient id="Fill-1_1_" gradientUnits="userSpaceOnUse" x1="-488.6871" y1="789.6321" x2="-486.2121" y2="788.5321" gradientTransform="matrix(120 0 0 -80 58310 63522)">
		<stop  offset="0" style="stop-color:#FF4C1D"/>
		<stop  offset="1" style="stop-color:#9B0063"/>
	</linearGradient>
	<path id="Fill-1" class="st0" d="M-331,355.8c-1.6,1.1-2.5,3-2.5,4.8l0,0v0.1c0,0.8,0.2,1.6,0.5,2.3l0,0l28.4,64.4
		c1.3,2.9,4.5,4.3,7.5,3.2l0,0c18.6-6.6,83.1-27.6,124.8-16.3l0,0c0,0-41.8,2.4-79.7,32.1l0,0c-2.1,1.7-2.8,4.6-1.8,7.1l0,0
		c3.1,6.9,9.2,20.9,12.7,28.8l0,0l4.9,11.5c1.2,2.7,4.9,3.1,6.5,0.6l0,0c8.8-13.3,23.7-19.9,38-25.7l0,0c14.6-5.9,29.9-10.4,45.5-13
		l0,0c16.6-2.8,33.6-3.6,50.4-2.1l0,0c2.8,0.2,5.4-1.5,6.2-4.1l0,0l12.8-41c0.8-2.4-0.1-5.1-2.2-6.6l0,0
		c-14.3-10.4-71-45.2-170.8-31.2l0,0c0,0,85.1-48.9,193.2,4.8l0,0c3.3,1.6,7.2-0.1,8.3-3.6l0,0l11.3-36.2c0.2-0.6,0.3-1.1,0.3-1.7
		l0,0v-0.2c0-2.1-1.1-4-3-5.1l0,0C-53.1,321-99,298-162.2,298l0,0C-210.6,298-269.1,311.5-331,355.8"/>
</g>
</svg>
